<svg width="165" height="167" viewBox="0 0 165 167" fill="none" xmlns="http://www.w3.org/2000/svg">
<rect width="164.848" height="164.848" rx="23.0468" fill="url(#paint0_linear_15768_30995)"/>
<g filter="url(#filter0_d_15768_30995)">
<ellipse cx="28.9426" cy="137.382" rx="20.4348" ry="19.3301" fill="white"/>
<path d="M29.043 134.43H33.6959" stroke="#246FE0" stroke-width="1.32942" stroke-linecap="round" stroke-linejoin="round"/>
<path d="M23.7305 134.43L24.3952 135.095L26.3893 133.101" stroke="#246FE0" stroke-width="1.32942" stroke-linecap="round" stroke-linejoin="round"/>
<path d="M29.043 140.634H33.6959" stroke="#246FE0" stroke-width="1.32942" stroke-linecap="round" stroke-linejoin="round"/>
<path d="M23.7305 140.634L24.3952 141.299L26.3893 139.305" stroke="#246FE0" stroke-width="1.32942" stroke-linecap="round" stroke-linejoin="round"/>
<path d="M26.0555 146.059H31.3732C35.8046 146.059 37.5771 144.286 37.5771 139.855V134.537C37.5771 130.106 35.8046 128.333 31.3732 128.333H26.0555C21.6241 128.333 19.8516 130.106 19.8516 134.537V139.855C19.8516 144.286 21.6241 146.059 26.0555 146.059Z" stroke="#246FE0" stroke-width="1.5953" stroke-linecap="round" stroke-linejoin="round"/>
</g>
<path d="M28.3295 25.3879V27.8648H24.9666V38.0801H21.8749V27.8648H18.512V25.3879H28.3295ZM29.2664 33.0177C29.2664 31.9811 29.4593 31.071 29.845 30.2876C30.2428 29.5041 30.7791 28.9014 31.4541 28.4796C32.1291 28.0577 32.8825 27.8468 33.7141 27.8468C34.4253 27.8468 35.046 27.9914 35.5764 28.2807C36.1188 28.57 36.5346 28.9496 36.8239 29.4197V27.9914H39.9156V38.0801H36.8239V36.6518C36.5226 37.1218 36.1007 37.5015 35.5583 37.7908C35.028 38.0801 34.4072 38.2247 33.6961 38.2247C32.8764 38.2247 32.1291 38.0138 31.4541 37.5919C30.7791 37.158 30.2428 36.5493 29.845 35.7658C29.4593 34.9703 29.2664 34.0542 29.2664 33.0177ZM36.8239 33.0357C36.8239 32.2643 36.607 31.6556 36.173 31.2096C35.7512 30.7637 35.2329 30.5407 34.6181 30.5407C34.0034 30.5407 33.4791 30.7637 33.0452 31.2096C32.6233 31.6436 32.4124 32.2462 32.4124 33.0177C32.4124 33.7891 32.6233 34.4038 33.0452 34.8618C33.4791 35.3078 34.0034 35.5308 34.6181 35.5308C35.2329 35.5308 35.7512 35.3078 36.173 34.8618C36.607 34.4158 36.8239 33.8072 36.8239 33.0357ZM46.2565 38.2247C45.3766 38.2247 44.5931 38.0741 43.9061 37.7727C43.219 37.4714 42.6766 37.0616 42.2789 36.5433C41.8811 36.0129 41.6581 35.4223 41.6099 34.7714H44.6654C44.7016 35.121 44.8643 35.4042 45.1536 35.6212C45.4429 35.8381 45.7985 35.9466 46.2203 35.9466C46.606 35.9466 46.9013 35.8743 47.1063 35.7297C47.3232 35.573 47.4317 35.3741 47.4317 35.133C47.4317 34.8437 47.281 34.6328 46.9797 34.5002C46.6784 34.3556 46.1902 34.1989 45.5152 34.0301C44.792 33.8614 44.1893 33.6866 43.7072 33.5058C43.2251 33.313 42.8092 33.0177 42.4597 32.6199C42.1101 32.2101 41.9354 31.6617 41.9354 30.9746C41.9354 30.396 42.092 29.8717 42.4054 29.4016C42.7309 28.9195 43.201 28.5398 43.8157 28.2626C44.4425 27.9854 45.1837 27.8468 46.0395 27.8468C47.3051 27.8468 48.2995 28.1601 49.0227 28.7869C49.758 29.4137 50.1799 30.2454 50.2883 31.282H47.4317C47.3835 30.9324 47.2268 30.6552 46.9616 30.4503C46.7085 30.2454 46.371 30.1429 45.9491 30.1429C45.5875 30.1429 45.3103 30.2152 45.1174 30.3599C44.9246 30.4925 44.8282 30.6793 44.8282 30.9204C44.8282 31.2096 44.9788 31.4266 45.2802 31.5712C45.5936 31.7159 46.0757 31.8605 46.7266 32.0052C47.4739 32.198 48.0826 32.3909 48.5527 32.5837C49.0227 32.7645 49.4326 33.0659 49.7821 33.4877C50.1437 33.8976 50.3305 34.452 50.3426 35.1511C50.3426 35.7417 50.1738 36.2721 49.8363 36.7422C49.5109 37.2002 49.0348 37.5618 48.408 37.827C47.7933 38.0921 47.0761 38.2247 46.2565 38.2247ZM58.3994 38.0801L55.3258 33.8493V38.0801H52.2341V24.7008H55.3258V32.0956L58.3813 27.9914H62.1962L58.0016 33.0538L62.2324 38.0801H58.3994ZM67.5147 38.2247C66.6348 38.2247 65.8513 38.0741 65.1643 37.7727C64.4773 37.4714 63.9349 37.0616 63.5371 36.5433C63.1393 36.0129 62.9163 35.4223 62.8681 34.7714H65.9237C65.9598 35.121 66.1225 35.4042 66.4118 35.6212C66.7011 35.8381 67.0567 35.9466 67.4785 35.9466C67.8643 35.9466 68.1596 35.8743 68.3645 35.7297C68.5814 35.573 68.6899 35.3741 68.6899 35.133C68.6899 34.8437 68.5392 34.6328 68.2379 34.5002C67.9366 34.3556 67.4484 34.1989 66.7734 34.0301C66.0502 33.8614 65.4476 33.6866 64.9654 33.5058C64.4833 33.313 64.0674 33.0177 63.7179 32.6199C63.3683 32.2101 63.1936 31.6617 63.1936 30.9746C63.1936 30.396 63.3503 29.8717 63.6637 29.4016C63.9891 28.9195 64.4592 28.5398 65.0739 28.2626C65.7007 27.9854 66.442 27.8468 67.2977 27.8468C68.5634 27.8468 69.5578 28.1601 70.281 28.7869C71.0162 29.4137 71.4381 30.2454 71.5466 31.282H68.6899C68.6417 30.9324 68.485 30.6552 68.2198 30.4503C67.9667 30.2454 67.6292 30.1429 67.2073 30.1429C66.8457 30.1429 66.5685 30.2152 66.3757 30.3599C66.1828 30.4925 66.0864 30.6793 66.0864 30.9204C66.0864 31.2096 66.237 31.4266 66.5384 31.5712C66.8518 31.7159 67.3339 31.8605 67.9848 32.0052C68.7321 32.198 69.3408 32.3909 69.8109 32.5837C70.281 32.7645 70.6908 33.0659 71.0403 33.4877C71.4019 33.8976 71.5888 34.452 71.6008 35.1511C71.6008 35.7417 71.4321 36.2721 71.0946 36.7422C70.7691 37.2002 70.293 37.5618 69.6662 37.827C69.0515 38.0921 68.3343 38.2247 67.5147 38.2247ZM31.8732 44.6048V57.0801H30.6076V47.118L26.1599 57.0801H25.2378L20.7901 47.1541V57.0801H19.5245V44.6048H20.8625L25.6898 55.4167L30.5172 44.6048H31.8732ZM34.1657 52.1261C34.1657 51.1137 34.3646 50.2277 34.7624 49.4684C35.1722 48.6969 35.7327 48.1063 36.4438 47.6965C37.167 47.2746 37.9806 47.0637 38.8846 47.0637C39.8248 47.0637 40.6324 47.2807 41.3074 47.7146C41.9944 48.1485 42.4886 48.703 42.7899 49.378V47.2084H44.0555V57.0801H42.7899V54.8924C42.4765 55.5674 41.9763 56.1279 41.2893 56.5738C40.6143 57.0078 39.8067 57.2247 38.8665 57.2247C37.9746 57.2247 37.167 57.0138 36.4438 56.5919C35.7327 56.17 35.1722 55.5734 34.7624 54.802C34.3646 54.0306 34.1657 53.1386 34.1657 52.1261ZM42.7899 52.1442C42.7899 51.3487 42.6272 50.6496 42.3018 50.0469C41.9763 49.4443 41.5303 48.9802 40.9638 48.6548C40.4094 48.3293 39.7947 48.1666 39.1197 48.1666C38.4206 48.1666 37.7938 48.3233 37.2393 48.6367C36.6849 48.9501 36.2449 49.4081 35.9195 50.0108C35.6061 50.6014 35.4494 51.3065 35.4494 52.1261C35.4494 52.9337 35.6061 53.6449 35.9195 54.2596C36.2449 54.8623 36.6849 55.3263 37.2393 55.6518C37.7938 55.9651 38.4206 56.1218 39.1197 56.1218C39.7947 56.1218 40.4094 55.9591 40.9638 55.6337C41.5303 55.3082 41.9763 54.8442 42.3018 54.2415C42.6272 53.6388 42.7899 52.9397 42.7899 52.1442ZM51.5733 47.0276C52.7545 47.0276 53.7188 47.3952 54.4661 48.1304C55.2134 48.8536 55.5871 49.9083 55.5871 51.2945V57.0801H54.3396V51.4391C54.3396 50.3663 54.0684 49.5467 53.526 48.9802C52.9956 48.4137 52.2664 48.1304 51.3383 48.1304C50.386 48.1304 49.6267 48.4318 49.0602 49.0344C48.4937 49.6371 48.2104 50.523 48.2104 51.6922V57.0801H46.9448V47.2084H48.2104V48.8898C48.5238 48.2871 48.9758 47.8291 49.5664 47.5157C50.157 47.1903 50.826 47.0276 51.5733 47.0276ZM57.8075 52.1261C57.8075 51.1137 58.0064 50.2277 58.4042 49.4684C58.814 48.6969 59.3745 48.1063 60.0856 47.6965C60.8088 47.2746 61.6224 47.0637 62.5264 47.0637C63.4666 47.0637 64.2742 47.2807 64.9492 47.7146C65.6362 48.1485 66.1304 48.703 66.4317 49.378V47.2084H67.6973V57.0801H66.4317V54.8924C66.1184 55.5674 65.6181 56.1279 64.9311 56.5738C64.2561 57.0078 63.4485 57.2247 62.5084 57.2247C61.6164 57.2247 60.8088 57.0138 60.0856 56.5919C59.3745 56.17 58.814 55.5734 58.4042 54.802C58.0064 54.0306 57.8075 53.1386 57.8075 52.1261ZM66.4317 52.1442C66.4317 51.3487 66.269 50.6496 65.9436 50.0469C65.6181 49.4443 65.1722 48.9802 64.6057 48.6548C64.0512 48.3293 63.4365 48.1666 62.7615 48.1666C62.0624 48.1666 61.4356 48.3233 60.8812 48.6367C60.3267 48.9501 59.8868 49.4081 59.5613 50.0108C59.2479 50.6014 59.0912 51.3065 59.0912 52.1261C59.0912 52.9337 59.2479 53.6449 59.5613 54.2596C59.8868 54.8623 60.3267 55.3263 60.8812 55.6518C61.4356 55.9651 62.0624 56.1218 62.7615 56.1218C63.4365 56.1218 64.0512 55.9591 64.6057 55.6337C65.1722 55.3082 65.6181 54.8442 65.9436 54.2415C66.269 53.6388 66.4317 52.9397 66.4317 52.1442ZM74.727 47.0637C75.6551 47.0637 76.4627 47.2807 77.1497 47.7146C77.8367 48.1485 78.3309 48.6969 78.6323 49.3599V47.2084H79.8979V57.3332C79.8979 58.2372 79.699 59.0388 79.3012 59.7378C78.9155 60.4369 78.3731 60.9733 77.674 61.347C76.9749 61.7327 76.1794 61.9255 75.2874 61.9255C74.0218 61.9255 72.9672 61.6242 72.1234 61.0215C71.2917 60.4189 70.7735 59.5992 70.5685 58.5626H71.8161C72.033 59.2497 72.4428 59.7981 73.0455 60.2079C73.6602 60.6177 74.4076 60.8227 75.2874 60.8227C75.9263 60.8227 76.4988 60.684 77.0051 60.4068C77.5113 60.1416 77.9091 59.7439 78.1983 59.2135C78.4876 58.6832 78.6323 58.0564 78.6323 57.3332V54.8924C78.3189 55.5674 77.8187 56.1279 77.1316 56.5738C76.4566 57.0078 75.6551 57.2247 74.727 57.2247C73.823 57.2247 73.0094 57.0138 72.2862 56.5919C71.575 56.17 71.0145 55.5734 70.6047 54.802C70.2069 54.0306 70.0081 53.1386 70.0081 52.1261C70.0081 51.1137 70.2069 50.2277 70.6047 49.4684C71.0145 48.6969 71.575 48.1063 72.2862 47.6965C73.0094 47.2746 73.823 47.0637 74.727 47.0637ZM78.6323 52.1442C78.6323 51.3487 78.4695 50.6496 78.1441 50.0469C77.8187 49.4443 77.3727 48.9802 76.8062 48.6548C76.2517 48.3293 75.637 48.1666 74.962 48.1666C74.2629 48.1666 73.6361 48.3233 73.0817 48.6367C72.5272 48.9501 72.0873 49.4081 71.7618 50.0108C71.4484 50.6014 71.2917 51.3065 71.2917 52.1261C71.2917 52.9337 71.4484 53.6449 71.7618 54.2596C72.0873 54.8623 72.5272 55.3263 73.0817 55.6518C73.6361 55.9651 74.2629 56.1218 74.962 56.1218C75.637 56.1218 76.2517 55.9591 76.8062 55.6337C77.3727 55.3082 77.8187 54.8442 78.1441 54.2415C78.4695 53.6388 78.6323 52.9397 78.6323 52.1442ZM91.7187 51.638C91.7187 52.0719 91.7067 52.4034 91.6825 52.6324H83.4923C83.5284 53.3797 83.7092 54.0185 84.0347 54.5489C84.3601 55.0792 84.788 55.483 85.3184 55.7602C85.8487 56.0254 86.4273 56.158 87.054 56.158C87.8737 56.158 88.5607 55.9591 89.1152 55.5614C89.6817 55.1636 90.0553 54.6272 90.2361 53.9522H91.5741C91.333 54.9165 90.8147 55.706 90.0192 56.3207C89.2357 56.9234 88.2473 57.2247 87.054 57.2247C86.1259 57.2247 85.2943 57.0198 84.559 56.61C83.8237 56.1881 83.2452 55.5975 82.8233 54.8381C82.4135 54.0667 82.2086 53.1688 82.2086 52.1442C82.2086 51.1197 82.4135 50.2217 82.8233 49.4503C83.2331 48.6789 83.8057 48.0883 84.5409 47.6784C85.2762 47.2686 86.1139 47.0637 87.054 47.0637C87.9942 47.0637 88.8138 47.2686 89.5129 47.6784C90.2241 48.0883 90.7665 48.6427 91.1401 49.3418C91.5259 50.0288 91.7187 50.7942 91.7187 51.638ZM90.435 51.6018C90.4471 50.8666 90.2964 50.2398 89.983 49.7215C89.6817 49.2032 89.2658 48.8115 88.7355 48.5463C88.2051 48.2811 87.6266 48.1485 86.9998 48.1485C86.0596 48.1485 85.2581 48.4499 84.5952 49.0525C83.9322 49.6552 83.5646 50.505 83.4923 51.6018H90.435ZM105.786 47.0276C106.943 47.0276 107.884 47.3952 108.607 48.1304C109.342 48.8536 109.71 49.9083 109.71 51.2945V57.0801H108.462V51.4391C108.462 50.3663 108.203 49.5467 107.685 48.9802C107.166 48.4137 106.461 48.1304 105.569 48.1304C104.641 48.1304 103.9 48.4378 103.345 49.0525C102.791 49.6672 102.514 50.5592 102.514 51.7284V57.0801H101.266V51.4391C101.266 50.3663 101.007 49.5467 100.489 48.9802C99.9705 48.4137 99.2594 48.1304 98.3554 48.1304C97.4273 48.1304 96.686 48.4378 96.1315 49.0525C95.5771 49.6672 95.2998 50.5592 95.2998 51.7284V57.0801H94.0342V47.2084H95.2998V48.9079C95.6132 48.2932 96.0592 47.8291 96.6378 47.5157C97.2163 47.1903 97.8612 47.0276 98.5723 47.0276C99.4281 47.0276 100.175 47.2325 100.814 47.6423C101.465 48.0521 101.935 48.6548 102.225 49.4503C102.49 48.6668 102.942 48.0702 103.581 47.6604C104.231 47.2385 104.967 47.0276 105.786 47.0276ZM121.452 51.638C121.452 52.0719 121.44 52.4034 121.416 52.6324H113.226C113.262 53.3797 113.442 54.0185 113.768 54.5489C114.093 55.0792 114.521 55.483 115.052 55.7602C115.582 56.0254 116.161 56.158 116.787 56.158C117.607 56.158 118.294 55.9591 118.848 55.5614C119.415 55.1636 119.789 54.6272 119.969 53.9522H121.307C121.066 54.9165 120.548 55.706 119.752 56.3207C118.969 56.9234 117.981 57.2247 116.787 57.2247C115.859 57.2247 115.028 57.0198 114.292 56.61C113.557 56.1881 112.978 55.5975 112.557 54.8381C112.147 54.0667 111.942 53.1688 111.942 52.1442C111.942 51.1197 112.147 50.2217 112.557 49.4503C112.966 48.6789 113.539 48.0883 114.274 47.6784C115.009 47.2686 115.847 47.0637 116.787 47.0637C117.727 47.0637 118.547 47.2686 119.246 47.6784C119.957 48.0883 120.5 48.6427 120.873 49.3418C121.259 50.0288 121.452 50.7942 121.452 51.638ZM120.168 51.6018C120.18 50.8666 120.03 50.2398 119.716 49.7215C119.415 49.2032 118.999 48.8115 118.469 48.5463C117.938 48.2811 117.36 48.1485 116.733 48.1485C115.793 48.1485 114.991 48.4499 114.328 49.0525C113.665 49.6552 113.298 50.505 113.226 51.6018H120.168ZM128.396 47.0276C129.577 47.0276 130.541 47.3952 131.289 48.1304C132.036 48.8536 132.41 49.9083 132.41 51.2945V57.0801H131.162V51.4391C131.162 50.3663 130.891 49.5467 130.349 48.9802C129.818 48.4137 129.089 48.1304 128.161 48.1304C127.209 48.1304 126.449 48.4318 125.883 49.0344C125.316 49.6371 125.033 50.523 125.033 51.6922V57.0801H123.767V47.2084H125.033V48.8898C125.346 48.2871 125.798 47.8291 126.389 47.5157C126.98 47.1903 127.649 47.0276 128.396 47.0276ZM136.854 48.2751V54.4042C136.854 55.0069 136.969 55.4227 137.198 55.6518C137.427 55.8808 137.83 55.9953 138.409 55.9953H139.566V57.0801H138.21C137.318 57.0801 136.655 56.8752 136.221 56.4654C135.787 56.0435 135.57 55.3564 135.57 54.4042V48.2751H134.196V47.2084H135.57V44.7314H136.854V47.2084H139.566V48.2751H136.854Z" fill="white"/>
<defs>
<filter id="filter0_d_15768_30995" x="1.06307" y="112.735" width="55.7606" height="53.5496" filterUnits="userSpaceOnUse" color-interpolation-filters="sRGB">
<feFlood flood-opacity="0" result="BackgroundImageFix"/>
<feColorMatrix in="SourceAlpha" type="matrix" values="0 0 0 0 0 0 0 0 0 0 0 0 0 0 0 0 0 0 127 0" result="hardAlpha"/>
<feOffset dy="2.12707"/>
<feGaussianBlur stdDeviation="3.72237"/>
<feColorMatrix type="matrix" values="0 0 0 0 0 0 0 0 0 0 0 0 0 0 0 0 0 0 0.2 0"/>
<feBlend mode="normal" in2="BackgroundImageFix" result="effect1_dropShadow_15768_30995"/>
<feBlend mode="normal" in="SourceGraphic" in2="effect1_dropShadow_15768_30995" result="shape"/>
</filter>
<linearGradient id="paint0_linear_15768_30995" x1="82.4239" y1="0" x2="82.4239" y2="164.848" gradientUnits="userSpaceOnUse">
<stop stop-color="#3573E7"/>
<stop offset="1" stop-color="#1A5BD6"/>
</linearGradient>
</defs>
</svg>
